<svg height="512pt" viewBox="-52 0 511 512" width="512pt" xmlns="http://www.w3.org/2000/svg"><path d="m259.976562 322.421875h-111.570312v157.589844c0 17.667969 14.320312 31.988281 31.988281 31.988281h47.59375c17.667969 0 31.988281-14.324219 31.988281-31.988281zm0 0" fill="#e1b89a"/><path d="m259.976562 322.421875h-111.570312v157.589844c0 17.667969 14.320312 31.988281 31.988281 31.988281h47.59375c17.667969 0 31.988281-14.324219 31.988281-31.988281zm0 0" fill="#e1b89a"/><path d="m148.40625 480.007812c0 17.667969 14.320312 31.992188 31.988281 31.992188h47.59375c.757813 0 1.511719-.035156 2.257813-.089844-30.960938-21.914062-39.074219-71.699218-41.105469-111.023437h70.835937v-78.464844h-111.570312zm0 0" fill="#d2996f"/><path d="m212.777344 459.683594c-1.917969 0-3.839844-.734375-5.300782-2.199219-2.929687-2.929687-2.929687-7.675781 0-10.605469l10.914063-10.917968c2.929687-2.925782 7.679687-2.925782 10.605469 0 2.929687 2.929687 2.929687 7.679687 0 10.609374l-10.914063 10.914063c-1.464843 1.464844-3.386719 2.199219-5.304687 2.199219zm0 0" fill="#d2996f"/><path d="m270.542969 0h-132.703125c-25.363282 0-48.796875 13.53125-61.476563 35.492188l-66.351562 114.925781c-12.683594 21.964843-12.683594 49.023437 0 70.988281l66.351562 114.925781c12.679688 21.960938 36.113281 35.492188 61.476563 35.492188h132.707031c25.359375 0 48.792969-13.53125 61.472656-35.492188l66.355469-114.925781c12.679688-21.964844 12.679688-49.023438 0-70.988281l-66.355469-114.925781c-12.679687-21.960938-36.113281-35.492188-61.476562-35.492188zm0 0" fill="#eda1ab"/><path d="m137.839844 371.824219h132.703125c25.363281 0 48.796875-13.527344 61.476562-35.492188l9.265625-16.046875c-230.054687-53.550781-233.675781-259.015625-209.148437-320.046875-23.132813 1.859375-44.050781 14.949219-55.773438 35.253907l-66.351562 114.925781c-12.683594 21.964843-12.683594 49.023437 0 70.988281l66.351562 114.925781c12.679688 21.964844 36.113281 35.492188 61.476563 35.492188zm0 0" fill="#e26e7e"/><path d="m280.492188 107.824219c-10.976563 0-19.875 8.898437-19.875 19.875v-23.804688c0-10.976562-8.898438-19.875-19.875-19.875-10.976563 0-19.875 8.898438-19.875 19.875v-19.34375c0-10.976562-8.898438-19.875-19.875-19.875-10.976563 0-19.875 8.898438-19.875 19.875v19.34375c0-10.976562-8.898438-19.875-19.875-19.875-10.976563 0-19.875 8.898438-19.875 19.875v87.945313l-14.121094-14.121094c-12.214844-12.210938-32.019532-12.210938-44.230469 0-8.351563 8.351562-8.351563 21.890625 0 30.242188l75.101563 75.101562c32.542968 32.542969 85.304687 32.542969 117.84375 0 16.269531-16.269531 24.40625-37.59375 24.40625-58.921875v-96.441406c0-10.976563-8.898438-19.875-19.875-19.875zm0 0" fill="#f7ef87"/><g fill="#efd176"><path d="m158.117188 283.0625c28.78125 28.785156 73.375 32.089844 105.8125 9.953125-65.253907-32.511719-102.714844-80.792969-122.5625-129.628906v28.453125l-14.121094-14.121094c-12.214844-12.210938-32.019532-12.210938-44.230469 0-8.351563 8.351562-8.351563 21.890625 0 30.242188zm0 0"/><path d="m181.117188 178.8125c-4.144532 0-7.5-3.359375-7.5-7.5v-67.417969c0-4.144531 3.355468-7.5 7.5-7.5 4.140624 0 7.5 3.355469 7.5 7.5v67.417969c0 4.140625-3.359376 7.5-7.5 7.5zm0 0"/><path d="m220.867188 176.757812c-4.144532 0-7.5-3.355468-7.5-7.5v-65.363281c0-4.140625 3.355468-7.5 7.5-7.5 4.140624 0 7.5 3.359375 7.5 7.5v65.363281c0 4.144532-3.359376 7.5-7.5 7.5zm0 0"/><path d="m260.617188 183.050781c-4.144532 0-7.5-3.359375-7.5-7.5v-47.851562c0-4.140625 3.355468-7.5 7.5-7.5 4.140624 0 7.5 3.359375 7.5 7.5v47.851562c0 4.140625-3.359376 7.5-7.5 7.5zm0 0"/></g><path d="m270.542969 348.535156h-132.703125c-16.988282 0-32.816406-9.136718-41.308594-23.847656l-66.351562-114.925781c-8.492188-14.710938-8.492188-32.988281 0-47.695313l66.351562-114.929687c8.492188-14.707031 24.320312-23.847657 41.308594-23.847657h132.707031c16.984375 0 32.8125 9.140626 41.304687 23.847657l66.351563 114.929687c8.492187 14.707032 8.492187 32.984375 0 47.695313l-66.351563 114.925781c-8.492187 14.710938-24.320312 23.847656-41.308593 23.847656zm-132.703125-310.246094c-11.644532 0-22.496094 6.265626-28.316406 16.347657l-66.351563 114.925781c-5.824219 10.085938-5.824219 22.613281 0 32.699219l66.351563 114.925781c5.820312 10.082031 16.671874 16.347656 28.316406 16.347656h132.707031c11.640625 0 22.492187-6.265625 28.3125-16.347656l66.355469-114.925781c5.820312-10.085938 5.820312-22.613281 0-32.699219l-66.355469-114.925781c-5.820313-10.082031-16.671875-16.347657-28.316406-16.347657zm0 0" fill="#fff"/></svg>