<svg height="512pt" viewBox="-34 0 512 512" width="512pt" xmlns="http://www.w3.org/2000/svg"><path d="m221.703125 512-221.703125-128v-256l221.703125-128 221.703125 128v256zm0 0" fill="#e4f7ff"/><path d="m221.703125 512 221.703125-128v-256h-221.703125zm0 0" fill="#84d4f0"/><path d="m0 128 221.703125 128 221.703125-128-221.703125-128zm0 0" fill="#cbedfd"/><path d="m221.703125 0v256l221.703125-128zm0 0" fill="#a9e1fa"/><path d="m241.757812 139.691406c0 11.074219-8.980468 20.050782-20.054687 20.050782s-20.054687-8.976563-20.054687-20.050782c0-11.074218 8.980468-20.054687 20.054687-20.054687s20.054687 8.980469 20.054687 20.054687zm0 0" fill="#0e61c4"/><path d="m382.128906 270.039062c0 11.074219-8.976562 20.050782-20.054687 20.050782-11.074219 0-20.050781-8.976563-20.050781-20.050782 0-11.078124 8.976562-20.054687 20.050781-20.054687 11.078125 0 20.054687 8.976563 20.054687 20.054687zm0 0" fill="#0c4ead"/><path d="m311.941406 360.277344c0 11.074218-8.976562 20.054687-20.050781 20.054687s-20.054687-8.980469-20.054687-20.054687c0-11.074219 8.980468-20.054688 20.054687-20.054688s20.050781 8.980469 20.050781 20.054688zm0 0" fill="#0c4ead"/><g fill="#0e61c4"><path d="m181.597656 390.355469c0 11.078125-8.980468 20.054687-20.054687 20.054687s-20.054688-8.976562-20.054688-20.054687c0-11.074219 8.980469-20.050781 20.054688-20.050781s20.054687 8.976562 20.054687 20.050781zm0 0"/><path d="m91.355469 239.957031c0 11.074219-8.976563 20.054688-20.050781 20.054688-11.078126 0-20.054688-8.980469-20.054688-20.054688s8.976562-20.050781 20.054688-20.050781c11.074218 0 20.050781 8.976562 20.050781 20.050781zm0 0"/><path d="m136.476562 315.15625c0 11.078125-8.976562 20.054688-20.054687 20.054688-11.074219 0-20.050781-8.976563-20.050781-20.054688 0-11.074219 8.976562-20.050781 20.050781-20.050781 11.078125 0 20.054687 8.976562 20.054687 20.050781zm0 0"/></g><path d="m221.703125 119.636719v40.109375c11.074219 0 20.054687-8.980469 20.054687-20.054688 0-11.074218-8.980468-20.054687-20.054687-20.054687zm0 0" fill="#0c4ead"/></svg>