<svg height="480pt" viewBox="-40 0 479 480" width="480pt" xmlns="http://www.w3.org/2000/svg"><path d="m264.5 40v209.375c0 4.242188 1.6875 8.3125 4.6875 11.3125 6.25 6.246094 16.375 6.246094 22.625 0l42.742188-42.742188c6.367187-6.367187 15-9.945312 24-9.945312 18.75 0 33.945312 15.195312 33.945312 33.945312 0 9-3.578125 17.632813-9.945312 24l-99.308594 99.3125c-12.003906 12-18.746094 28.28125-18.746094 45.253907v61.488281h-216v-61.488281c0-16.972657-6.742188-33.253907-18.742188-45.253907l-2.511718-2.515624c-12.003906-12-18.746094-28.28125-18.746094-45.253907v-237.488281c0-17.671875 14.328125-32 32-32s32 14.328125 32 32v80h128v-120c0-17.671875 14.328125-32 32-32s32 14.328125 32 32zm0 0" fill="#ffdaaa"/><path d="m104.5 128c17.671875 0 32 14.328125 32 32v64c0 17.671875-14.328125 32-32 32s-32-14.328125-32-32v-64c0-17.671875 14.328125-32 32-32zm0 0" fill="#ffe9cc"/><path d="m168.5 128c17.671875 0 32 14.328125 32 32v80c0 17.671875-14.328125 32-32 32s-32-14.328125-32-32v-80c0-17.671875 14.328125-32 32-32zm0 0" fill="#ffe9cc"/><path d="m363.386719 208.488281c-62.242188 119.714844-180.636719 199.992188-314.886719 213.511719v50h216v-61.488281c0-16.972657 6.742188-33.253907 18.746094-45.253907l99.308594-99.3125c9.089843-9.070312 12.265624-22.5 8.195312-34.675781s-14.679688-21-27.394531-22.78125zm0 0" fill="#ffc477"/><path d="m358.554688 200c-11.125-.027344-21.804688 4.390625-29.65625 12.28125l-42.75 42.75c-3.160157 3.035156-8.152344 3.035156-11.3125 0-1.492188-1.503906-2.328126-3.535156-2.335938-5.65625v-209.375c0-22.089844-17.910156-40-40-40s-40 17.910156-40 40v88.207031c-8.4375-6.503906-19.152344-9.316406-29.699219-7.804687-10.546875 1.515625-20.03125 7.230468-26.300781 15.84375-6.269531-8.613282-15.753906-14.328125-26.300781-15.84375-10.546875-1.511719-21.257813 1.300781-29.699219 7.804687v-48.207031c0-22.089844-17.910156-40-40-40s-40 17.910156-40 40v237.496094c-.054688 19.101562 7.535156 37.429687 21.082031 50.894531l2.511719 2.519531c10.539062 10.476563 16.445312 24.734375 16.40625 39.59375v61.496094c0 4.417969 3.582031 8 8 8h216c4.417969 0 8-3.582031 8-8v-61.496094c-.042969-14.859375 5.863281-29.113281 16.398438-39.59375l99.3125-99.308594c11.996093-11.996093 15.582031-30.035156 9.089843-45.707031-6.488281-15.671875-21.78125-25.890625-38.746093-25.894531zm-190.054688-64c13.253906 0 24 10.746094 24 24v80c0 13.253906-10.746094 24-24 24s-24-10.746094-24-24v-80c0-13.253906 10.746094-24 24-24zm-64 0c13.253906 0 24 10.746094 24 24v64c0 13.253906-10.746094 24-24 24s-24-10.746094-24-24v-64c0-13.253906 10.746094-24 24-24zm272.398438 124.28125-99.308594 99.320312c-13.550782 13.46875-21.144532 31.796876-21.089844 50.902344v53.496094h-200v-53.496094c.054688-19.101562-7.535156-37.429687-21.078125-50.894531l-2.511719-2.519531c-10.539062-10.476563-16.449218-24.734375-16.410156-39.59375v-237.496094c0-13.253906 10.746094-24 24-24s24 10.746094 24 24v144c-.027344 11.972656 5.324219 23.328125 14.578125 30.925781 9.257813 7.597657 21.433594 10.636719 33.175781 8.273438.796875-.167969 1.597656-.480469 2.398438-.695313 1.628906-.398437 3.234375-.898437 4.800781-1.496094.910156-.367187 1.742187-.863281 2.625-1.296874 1.371094-.640626 2.707031-1.363282 4-2.160157.863281-.558593 1.636719-1.199219 2.453125-1.816406.816406-.613281 1.6875-1.132813 2.441406-1.804687.121094.328124.304688.613281.429688.933593.273437.664063.59375 1.289063.898437 1.9375.707031 1.523438 1.507813 3 2.398438 4.421875.410156.648438.800781 1.28125 1.257812 1.898438 1.050781 1.464844 2.199219 2.855468 3.4375 4.167968.371094.390626.691407.800782 1.074219 1.191407 1.65625 1.625 3.449219 3.105469 5.359375 4.421875.449219.3125.9375.554687 1.398437.839844 1.523438.96875 3.113282 1.832031 4.753907 2.585937.710937.320313 1.421875.601563 2.152343.886719 1.582032.609375 3.199219 1.113281 4.847657 1.511718.71875.175782 1.414062.378907 2.152343.519532 11.699219 2.308594 23.820313-.765625 33.003907-8.375 9.183593-7.609375 14.457031-18.945313 14.363281-30.871094v-200c0-13.253906 10.746094-24 24-24s24 10.746094 24 24v209.375c-.015625 6.367188 2.511719 12.476562 7.023438 16.96875 9.5 9.066406 24.445312 9.066406 33.945312 0l42.742188-42.742188c6.511718-6.761718 16.164062-9.476562 25.242187-7.105468 9.082031 2.371094 16.171875 9.460937 18.546875 18.539062 2.371094 9.082032-.34375 18.734375-7.101562 25.246094zm0 0"/></svg>