<?xml version="1.0" encoding="iso-8859-1"?>
<!-- Generator: Adobe Illustrator 19.0.0, SVG Export Plug-In . SVG Version: 6.00 Build 0)  -->
<svg version="1.1" id="Capa_1" xmlns="http://www.w3.org/2000/svg" xmlns:xlink="http://www.w3.org/1999/xlink" x="0px" y="0px"
	 viewBox="0 0 402.773 402.773" style="enable-background:new 0 0 402.773 402.773;" xml:space="preserve">
<path style="fill:#FFFFFF;" d="M330.856,109.226L276.48,102.4v10.24c0-9.426-7.641-17.067-17.067-17.067
	s-17.067,7.641-17.067,17.067v-3.413v34.133v55.537c0,12.535,8.762,22.977,20.48,25.667v55.33h88.747v-55.33
	c11.718-2.688,20.48-13.131,20.48-25.667v-48.471C372.053,127.67,353.608,109.226,330.856,109.226z"/>
<g>
	<path style="fill:#602F75;" d="M351.573,286.72h-88.747c-3.773,0-6.827-3.053-6.827-6.827v-50.36
		c-12.286-5.053-20.48-16.973-20.48-30.64v-89.667c0-1.353,0.393-2.613,1.073-3.68c3.026-9.721,12.114-16.8,22.82-16.8
		c6.501,0,12.401,2.606,16.713,6.833c0.399-0.027,0.794-0.007,1.207,0.046l53.96,6.774c26.281,0.239,47.587,21.693,47.587,48.026
		v48.466c0,13.667-8.194,25.586-20.48,30.64v50.362C358.4,283.666,355.347,286.72,351.573,286.72z M269.653,273.066h75.093v-48.507
		c0-3.18,2.2-5.939,5.299-6.653c8.94-2.046,15.181-9.866,15.181-19.014v-48.468c0-18.953-15.42-34.374-34.374-34.374
		c-0.287,0-0.567-0.02-0.853-0.053l-46.693-5.859v2.5c0,3.773-3.053,6.827-6.827,6.827s-6.827-3.053-6.827-6.827
		c0-5.647-4.593-10.24-10.24-10.24s-10.24,4.593-10.24,10.24v86.253c0,9.146,6.24,16.966,15.181,19.014
		c3.099,0.713,5.299,3.473,5.299,6.653V273.066z"/>
	<path style="fill:#602F75;" d="M276.48,143.36c-3.773,0-6.827-3.053-6.827-6.827V102.4c0-3.773,3.053-6.827,6.827-6.827
		s6.827,3.053,6.827,6.827v34.133C283.306,140.306,280.253,143.36,276.48,143.36z"/>
	<path style="fill:#602F75;" d="M310.613,143.36c-3.773,0-6.827-3.053-6.827-6.827v-20.48c0-3.773,3.053-6.827,6.827-6.827
		s6.827,3.053,6.827,6.827v20.48C317.44,140.306,314.387,143.36,310.613,143.36z"/>
	<path style="fill:#602F75;" d="M337.92,143.36c-3.773,0-6.827-3.053-6.827-6.827v-20.48c0-3.773,3.053-6.827,6.827-6.827
		s6.827,3.053,6.827,6.827v20.48C344.746,140.306,341.693,143.36,337.92,143.36z"/>
</g>
<rect x="256" y="279.893" style="fill:#EA3457;" width="109.227" height="116.053"/>
<path style="fill:#602F75;" d="M365.227,402.773H256c-3.773,0-6.827-3.053-6.827-6.827V279.893c0-3.773,3.053-6.827,6.827-6.827
	h109.227c3.773,0,6.827,3.053,6.827,6.827v116.053C372.053,399.72,369,402.773,365.227,402.773z M262.826,389.12H358.4v-102.4
	h-95.573V389.12z"/>
<path style="fill:#FFFFFF;" d="M71.917,81.92l54.376-6.827v10.24c0-9.426,7.641-17.067,17.067-17.067
	c9.426,0,17.067,7.641,17.067,17.067V81.92v34.133v55.537c0,12.535-8.762,22.977-20.48,25.667v55.33H51.2v-55.33
	c-11.718-2.688-20.48-13.131-20.48-25.667v-48.471C30.72,100.364,49.165,81.92,71.917,81.92z"/>
<g>
	<path style="fill:#602F75;" d="M139.946,259.413H51.2c-3.77,0-6.827-3.053-6.827-6.827v-50.36
		c-12.29-5.047-20.48-16.966-20.48-30.633v-48.474c0-26.334,21.303-47.787,47.58-48.027l53.97-6.774
		c0.399-0.046,0.804-0.067,1.2-0.046c4.313-4.226,10.216-6.832,16.717-6.832c10.706,0,19.794,7.079,22.82,16.8
		c0.681,1.067,1.073,2.326,1.073,3.68v89.667c0,13.667-8.19,25.586-20.48,30.64v50.36
		C146.773,256.36,143.717,259.413,139.946,259.413z M58.026,245.76h75.093v-48.507c0-3.18,2.2-5.939,5.299-6.653
		c8.936-2.046,15.181-9.866,15.181-19.014V85.333c0-5.647-4.593-10.24-10.24-10.24s-10.24,4.593-10.24,10.24
		c0,3.773-3.057,6.827-6.827,6.827c-3.77,0-6.827-3.053-6.827-6.827v-2.5l-46.7,5.861c-0.283,0.032-0.567,0.053-0.85,0.053
		c-18.954,0-34.371,15.42-34.371,34.372v48.473c0,9.139,6.243,16.961,15.181,19.007c3.099,0.713,5.299,3.473,5.299,6.653V245.76z"/>
	<path style="fill:#602F75;" d="M126.293,116.053c-3.77,0-6.827-3.053-6.827-6.827V75.093c0-3.773,3.057-6.827,6.827-6.827
		c3.77,0,6.827,3.053,6.827,6.827v34.133C133.12,113,130.063,116.053,126.293,116.053z"/>
	<path style="fill:#602F75;" d="M92.16,116.053c-3.77,0-6.827-3.053-6.827-6.827v-20.48c0-3.773,3.057-6.827,6.827-6.827
		s6.827,3.053,6.827,6.827v20.48C98.986,113,95.93,116.053,92.16,116.053z"/>
	<path style="fill:#602F75;" d="M64.853,116.053c-3.77,0-6.827-3.053-6.827-6.827v-20.48c0-3.773,3.057-6.827,6.827-6.827
		s6.827,3.053,6.827,6.827v20.48C71.68,113,68.623,116.053,64.853,116.053z"/>
</g>
<polyline style="fill:#00E7FF;" points="146.773,395.946 37.546,395.946 37.546,252.586 146.773,252.586 146.773,337.92 "/>
<path style="fill:#602F75;" d="M146.773,402.773H37.546c-3.77,0-6.827-3.053-6.827-6.827v-143.36c0-3.773,3.057-6.827,6.827-6.827
	h109.227c3.77,0,6.827,3.053,6.827,6.827v85.333c0,3.773-3.057,6.827-6.827,6.827c-3.77,0-6.827-3.053-6.827-6.827v-78.507H44.373
	V389.12h102.4c3.77,0,6.827,3.053,6.827,6.827S150.543,402.773,146.773,402.773z"/>
<rect x="317.44" y="300.373" style="fill:#FFE600;" width="27.307" height="27.307"/>
<rect x="58.026" y="273.066" style="fill:#FFFFFF;" width="27.307" height="27.307"/>
<g>
	<path style="fill:#00E7FF;" d="M174.073,34.133c-1.3,0-2.616-0.374-3.78-1.147c-3.137-2.094-3.983-6.327-1.893-9.467l13.653-20.48
		c2.08-3.14,6.32-3.98,9.467-1.893c3.14,2.094,3.987,6.327,1.893,9.467l-13.653,20.48C178.447,33.066,176.28,34.133,174.073,34.133z
		"/>
	<path style="fill:#00E7FF;" d="M194.567,47.786c-2.507,0-4.913-1.381-6.113-3.773c-1.686-3.374-0.321-7.473,3.053-9.16l40.96-20.48
		c3.379-1.679,7.467-0.321,9.16,3.053c1.686,3.374,0.321,7.473-3.053,9.16l-40.96,20.48
		C196.633,47.552,195.592,47.786,194.567,47.786z"/>
	<path style="fill:#00E7FF;" d="M228.693,75.093h-27.307c-3.773,0-6.827-3.053-6.827-6.827s3.053-6.827,6.827-6.827h27.307
		c3.773,0,6.827,3.053,6.827,6.827S232.467,75.093,228.693,75.093z"/>
</g>
<g>
</g>
<g>
</g>
<g>
</g>
<g>
</g>
<g>
</g>
<g>
</g>
<g>
</g>
<g>
</g>
<g>
</g>
<g>
</g>
<g>
</g>
<g>
</g>
<g>
</g>
<g>
</g>
<g>
</g>
</svg>
